# xmcd
#
# Track frame offsets:
#	150
#	11843
#	24158
#	36561
#	48447
#	61114
#	74162
#	85232
#	98293
#	110486
#	122263
#	132695
#	144475
#	157441
#	169604
#	182764
#	194874
#	207896
#	222250
#	235647
#	248133
#	261682
#	273476
#	285567
#	296692
#	308203
#	322459
#	334200
#
# Disc length: 4631 seconds
#
# Revision: 1
# Processed by: cddbd v1.5.2PL0 Copyright (c) Steve Scherf et al.
# Submitted via: audiograbber 1.83.01
#
DISCID=bf12151c
DTITLE=Eddy Arnold - Bouquet of Roses
DYEAR=1900
DGENRE=Country
TTITLE0=Bonquet of Roses
TTITLE1=I'll Hold You In My Heart (Till I Can Hold You In My Arms)
TTITLE2=Just A Little Loven' (Will Go A Long Long Way)
TTITLE3=I'm Throwing Rice (At The Girl I Love)
TTITLE4=What Is Life Without Love
TTITLE5=Anytime
TTITLE6=It's A Sin
TTITLE7=Take Me In Your Arms And Hold Me
TTITLE8=Texarkana Baby
TTITLE9=Don't Rob Another Man's Castle
TTITLE10=One Kiss Too Many
TTITLE11=A Heart Full Of Love
TTITLE12=A Heart Full Of Love (For A Handful Of Kisses)
TTITLE13=The Echo Of Your Footsteps
TTITLE14=To My Sorrow
TTITLE15=There's Not A Thing (I Wouldn't Do For You)
TTITLE16=Then I Turned And Walked Slowly Away
TTITLE17=That's How Much I Love You
TTITLE18=Why Should I Cry?
TTITLE19=Chained To A Memory
TTITLE20=I Couldn't Believe It Was True
TTITLE21=There's No Wings On My Angel
TTITLE22=I Couldn't Believe It Was True
TTITLE23=Show Me The Way Back To Your Heart
TTITLE24=Little Angel With The Dirty Face
TTITLE25=My Daddy Is Only A Picture
TTITLE26=All Alone In This World Without You
TTITLE27=Many Tears Ago
EXTD=
EXTT0=
EXTT1=
EXTT2=
EXTT3=
EXTT4=
EXTT5=
EXTT6=
EXTT7=
EXTT8=
EXTT9=
EXTT10=
EXTT11=
EXTT12=
EXTT13=
EXTT14=
EXTT15=
EXTT16=
EXTT17=
EXTT18=
EXTT19=
EXTT20=
EXTT21=
EXTT22=
EXTT23=
EXTT24=
EXTT25=
EXTT26=
EXTT27=
PLAYORDER=
